<?xml version="1.0" encoding="utf-8"?>
<!-- Generator: Adobe Illustrator 24.1.0, SVG Export Plug-In . SVG Version: 6.00 Build 0)  -->
<svg version="1.1" id="Layer_1" xmlns="http://www.w3.org/2000/svg" xmlns:xlink="http://www.w3.org/1999/xlink" x="0px" y="0px"
	 viewBox="0 0 166 166" style="enable-background:new 0 0 166 166;" xml:space="preserve">
<style type="text/css">
	.st0{fill:#1F2124;}
	.st1{fill:#F7931E;}
	.st2{fill:#FFFFFF;}
	.st3{fill:#E82828;}
</style>
<rect class="st0" width="166" height="166"/>
<g>
	<path d="M-286.1,1022.5c-0.1-1.4-1.3-2.4-2.7-2.4h-3.2l-1.9-5.2c-0.4-1-1-1.9-1.7-2.7c-1.4-1.3-4.1-2.1-8.5-2.1h-6.1h-6.1
		c-4.5,0-7.1,0.8-8.5,2.1c-0.8,0.7-1.4,1.6-1.7,2.7l-1.9,5.2h-3.2c-1.4,0-2.6,1-2.7,2.4c-0.1,1.5,1.1,2.7,2.6,2.7h1.5
		c-0.3,0.8-0.6,1.6-0.9,2.5c-0.6,1.6-1.1,2.8-1.1,4.4c0,1.1,0,2.2,0,3.3c0,2.2,0,4.5,0,6.7c0,0.1,0,0.1,0,0.2v1.4v1.8
		c0,1.8,1.3,3.4,3.1,3.6c2.1,0.2,3.8-1.4,3.8-3.4v-1.9h15.5h15.5v1.8c0,1.8,1.3,3.4,3.1,3.6c2.1,0.2,3.8-1.4,3.8-3.4v-1.9v-1.4
		c0-0.1,0-0.1,0-0.2c0-2.2,0-4.5,0-6.7c0-1.1,0-2.2,0-3.3c0-1.7-0.6-2.9-1.1-4.4c-0.3-0.8-0.6-1.6-0.9-2.5h1.5
		C-287.2,1025.2-286,1024-286.1,1022.5z M-325.7,1035.6c-1.9,0.3-3.6-1.3-3.3-3.3c0.2-1.2,1.2-2.2,2.4-2.4c1.9-0.3,3.6,1.3,3.3,3.3
		C-323.5,1034.5-324.4,1035.5-325.7,1035.6z M-326.3,1024.5c1.2-5.1,2.3-8,2.9-9.1c0.4-0.6,1-0.9,1.7-0.9h11.3h11.3
		c0.7,0,1.3,0.3,1.7,0.9c0.7,1.1,1.7,4,2.9,9.1h-15.9H-326.3z M-294.2,1035.6c-1.9,0.3-3.6-1.3-3.3-3.3c0.2-1.2,1.2-2.2,2.4-2.4
		c1.9-0.3,3.6,1.3,3.3,3.3C-292,1034.5-293,1035.5-294.2,1035.6z"/>
	<path class="st1" d="M-293.8,993.2l-5.3-4.2l-7.7-6.1l-3.6-2.9l-3.6,2.9l-7.7,6.1l-5.3,4.2l-28,22.2v7.9h6.6v41.5h38h38v-41.5h6.6
		v-7.9L-293.8,993.2z M-282.4,1054.8h-28h-28V1015l28-22.2l0,0l0,0l28,22.2V1054.8z"/>
	<text transform="matrix(1 0 0 1 -377.9979 1097.3132)" style="font-family:'Bungee-Regular'; font-size:28px;">Checkup</text>
</g>
<g>
	<path class="st2" d="M614.5-100.5c-0.1-1.4-1.3-2.4-2.7-2.4h-3.2l-1.9-5.2c-0.4-1-1-1.9-1.7-2.7c-1.4-1.3-4.1-2.1-8.5-2.1h-6.1H584
		c-4.5,0-7.1,0.8-8.5,2.1c-0.8,0.7-1.4,1.6-1.7,2.7l-1.9,5.2h-3.2c-1.4,0-2.6,1-2.7,2.4c-0.1,1.5,1.1,2.7,2.6,2.7h1.5
		c-0.3,0.8-0.6,1.6-0.9,2.5c-0.6,1.6-1.1,2.8-1.1,4.4c0,1.1,0,2.2,0,3.3c0,2.2,0,4.5,0,6.7c0,0.1,0,0.1,0,0.2v1.4v1.8
		c0,1.8,1.3,3.4,3.1,3.6c2.1,0.2,3.8-1.4,3.8-3.4v-1.9h15.5H606v1.8c0,1.8,1.3,3.4,3.1,3.6c2.1,0.2,3.8-1.4,3.8-3.4v-1.9v-1.4
		c0-0.1,0-0.1,0-0.2c0-2.2,0-4.5,0-6.7c0-1.1,0-2.2,0-3.3c0-1.7-0.6-2.9-1.1-4.4c-0.3-0.8-0.6-1.6-0.9-2.5h1.5
		C613.4-97.7,614.5-99,614.5-100.5z M574.9-87.3c-1.9,0.3-3.6-1.3-3.3-3.3c0.2-1.2,1.2-2.2,2.4-2.4c1.9-0.3,3.6,1.3,3.3,3.3
		C577.1-88.5,576.1-87.5,574.9-87.3z M574.2-98.4c1.2-5.1,2.3-8,2.9-9.1c0.4-0.6,1-0.9,1.7-0.9h11.3h11.3c0.7,0,1.3,0.3,1.7,0.9
		c0.7,1.1,1.7,4,2.9,9.1h-15.9H574.2z M606.3-87.3c-1.9,0.3-3.6-1.3-3.3-3.3c0.2-1.2,1.2-2.2,2.4-2.4c1.9-0.3,3.6,1.3,3.3,3.3
		C608.5-88.5,607.5-87.5,606.3-87.3z"/>
	<path class="st3" d="M606.8-129.7l-5.3-4.2l-7.7-6.1l-3.6-2.9l-3.6,2.9l-7.7,6.1l-5.3,4.2l-28,22.2v7.9h6.6v41.5h38h38v-41.5h6.6
		v-7.9L606.8-129.7z M618.2-68.2h-28h-28V-108l28-22.2l0,0l0,0l28,22.2V-68.2z"/>
	<g>
		<path class="st2" d="M657.9-68.4c-5.8,0-8.5-2.2-8.5-7.1v-10.8c0-4.8,2.7-7.1,8.5-7.1h8.4c0.9,0,1.2,0.4,1.2,1.2v4.2
			c0,0.9-0.4,1.2-1.2,1.2h-7c-1.5,0-2.1,0.6-2.1,1.7v8.2c0,1.1,0.7,1.7,2.1,1.7h7c0.9,0,1.2,0.4,1.2,1.2v4.1c0,0.9-0.4,1.2-1.2,1.2
			h-8.4V-68.4z"/>
		<path class="st2" d="M673.2-68.4c-0.9,0-1.2-0.4-1.2-1.2V-92c0-0.9,0.4-1.2,1.2-1.2h5.4c0.9,0,1.2,0.4,1.2,1.2v7.5h5.8V-92
			c0-0.9,0.4-1.2,1.2-1.2h5.4c0.9,0,1.2,0.4,1.2,1.2v22.4c0,0.9-0.4,1.2-1.2,1.2h-5.4c-0.9,0-1.2-0.4-1.2-1.2v-7.7h-5.8v7.7
			c0,0.9-0.4,1.2-1.2,1.2H673.2z"/>
		<path class="st2" d="M699.8-68.4c-0.9,0-1.2-0.4-1.2-1.2V-92c0-0.9,0.4-1.2,1.2-1.2h16.1c0.9,0,1.2,0.4,1.2,1.2v4
			c0,0.9-0.4,1.2-1.2,1.2h-9.6v2.7h6.8c0.9,0,1.2,0.4,1.2,1.2v3.7c0,0.9-0.4,1.2-1.2,1.2h-6.8v3h9.6c0.9,0,1.2,0.4,1.2,1.2v4
			c0,0.9-0.4,1.2-1.2,1.2h-16.1V-68.4z"/>
		<path class="st2" d="M729.5-68.4c-5.8,0-8.5-2.2-8.5-7.1v-10.8c0-4.8,2.7-7.1,8.5-7.1h8.4c0.9,0,1.2,0.4,1.2,1.2v4.2
			c0,0.9-0.4,1.2-1.2,1.2h-7c-1.5,0-2.1,0.6-2.1,1.7v8.2c0,1.1,0.7,1.7,2.1,1.7h7c0.9,0,1.2,0.4,1.2,1.2v4.1c0,0.9-0.4,1.2-1.2,1.2
			h-8.4V-68.4z"/>
		<path class="st2" d="M744.8-68.4c-0.9,0-1.2-0.4-1.2-1.2V-92c0-0.9,0.4-1.2,1.2-1.2h5.4c0.9,0,1.2,0.4,1.2,1.2v8h1.4l3.6-8.1
			c0.3-0.8,0.8-1.1,1.7-1.1h5.3c0.8,0,1.1,0.4,0.8,1.1l-3.5,8.1c2.6,0.1,4.3,1.9,4.3,4.7v9.8c0,0.9-0.4,1.2-1.2,1.2h-5.3
			c-0.9,0-1.2-0.4-1.2-1.2v-6.7c0-0.8-0.4-1.2-1.1-1.2h-4.6v7.9c0,0.9-0.4,1.2-1.2,1.2h-5.6V-68.4z"/>
		<path class="st2" d="M780.3-67.9c-8.6,0-10.7-2.8-10.7-7.1v-17.1c0-0.9,0.4-1.2,1.2-1.2h5.4c0.9,0,1.2,0.4,1.2,1.2v15.8
			c0,0.9,0.4,1.6,2.8,1.6c2.5,0,2.9-0.7,2.9-1.6v-15.8c0-0.9,0.3-1.2,1.2-1.2h5.3c0.9,0,1.2,0.4,1.2,1.2V-75
			C790.9-70.7,788.8-67.9,780.3-67.9z"/>
		<path class="st2" d="M797.2-68.4c-0.9,0-1.2-0.4-1.2-1.2V-92c0-0.9,0.4-1.2,1.2-1.2h10.6c6.3,0,8.2,2.7,8.2,6.8v4.4
			c0,4-1.9,6.7-8.2,6.7h-4v5.7c0,0.9-0.4,1.2-1.2,1.2H797.2z M803.7-81.6h3.1c1.3,0,1.6-0.8,1.6-1.7v-1.8c0-0.9-0.3-1.7-1.6-1.7
			h-3.1V-81.6z"/>
	</g>
</g>
<g>
	<g>
		<path class="st2" d="M118.4,83.1c-0.1-2-2-3.5-4-3.5h-4.7l-2.8-7.6c-0.5-1.5-1.4-2.8-2.6-3.8c-2-1.9-6-3.1-12.5-3.1H83h-8.9
			c-6.5,0-10.3,1.2-12.5,3.1c-1.2,1.1-2,2.4-2.6,3.8l-2.8,7.6h-4.7c-2,0-3.8,1.5-4,3.5c-0.1,2.2,1.6,3.9,3.8,3.9h2.1
			c-0.5,1.2-0.9,2.4-1.3,3.6c-0.9,2.3-1.6,4-1.6,6.5c0,1.6,0,3.2,0,4.8c0,3.3,0,6.6,0,9.8c0,0.1,0,0.2,0,0.2v2.1v2.6
			c0,2.6,1.9,4.9,4.5,5.2c3,0.3,5.5-2,5.5-5v-2.8H83h22.6v2.6c0,2.6,1.9,4.9,4.5,5.2c3,0.3,5.5-2,5.5-5v-2.8v-2.1c0-0.1,0-0.2,0-0.2
			c0-3.3,0-6.6,0-9.8c0-1.6,0-3.2,0-4.8c0-2.4-0.8-4.2-1.6-6.5c-0.5-1.2-0.9-2.4-1.3-3.6h2.1C116.8,87.1,118.6,85.3,118.4,83.1z
			 M60.8,102.3c-2.8,0.5-5.2-2-4.8-4.8c0.2-1.7,1.7-3.2,3.4-3.4c2.8-0.5,5.2,2,4.8,4.8C64,100.6,62.6,102,60.8,102.3z M59.8,86.1
			c1.8-7.4,3.3-11.7,4.3-13.2c0.5-0.9,1.5-1.3,2.4-1.3h16.5h16.5c1,0,1.9,0.5,2.4,1.3c1,1.6,2.5,5.9,4.3,13.2H83H59.8z M106.6,102.3
			c-2.8,0.5-5.2-2-4.8-4.8c0.2-1.7,1.7-3.2,3.4-3.4c2.8-0.5,5.2,2,4.8,4.8C109.8,100.6,108.3,102,106.6,102.3z"/>
	</g>
	<path class="st3" d="M107.2,40.5l-7.8-6.1l-11.2-8.9L83,21.3l-5.2,4.2l-11.2,8.8l-7.8,6.1L18,72.8v11.5h9.6v60.5H83h55.4V84.2h9.6
		V72.8L107.2,40.5z M123.8,130.2H83H42.2v-58L83,39.9l0,0l0,0l40.8,32.3V130.2z"/>
</g>
<g>
	<g>
		<path class="st0" d="M364.2,83.1c-0.1-2.6-2.5-4.5-5.1-4.5h-6l-3.6-9.7c-0.7-1.9-1.8-3.6-3.3-4.9c-2.6-2.4-7.6-3.9-15.9-3.9H319
			h-11.4c-8.3,0-13.2,1.5-15.9,3.9c-1.5,1.4-2.6,3.1-3.3,4.9l-3.6,9.7h-6c-2.6,0-4.9,1.9-5.1,4.5c-0.1,2.8,2.1,5,4.8,5h2.7
			c-0.6,1.5-1.1,3.1-1.7,4.6c-1.1,2.9-2.1,5.1-2.1,8.3c0,2,0,4.1,0,6.1c0,4.2,0,8.4,0,12.5c0,0.1,0,0.2,0,0.3v2.7v3.3
			c0,3.3,2.4,6.3,5.8,6.6c3.8,0.4,7-2.6,7-6.4v-3.6H319h28.8v3.3c0,3.3,2.4,6.3,5.8,6.6c3.8,0.4,7-2.6,7-6.4v-3.6v-2.7
			c0-0.1,0-0.2,0-0.3c0-4.2,0-8.4,0-12.5c0-2,0-4.1,0-6.1c0-3.1-1-5.4-2.1-8.3c-0.6-1.5-1.1-3.1-1.7-4.6h2.7
			C362.2,88.2,364.4,85.9,364.2,83.1z M290.6,107.6c-3.6,0.6-6.7-2.5-6.1-6.1c0.3-2.2,2.2-4.1,4.4-4.4c3.6-0.6,6.7,2.5,6.1,6.1
			C294.7,105.5,292.9,107.3,290.6,107.6z M289.4,87c2.3-9.5,4.2-14.9,5.5-16.9c0.7-1.1,1.9-1.7,3.1-1.7h21.1h21.1
			c1.3,0,2.4,0.6,3.1,1.7c1.3,2,3.2,7.5,5.5,16.9H319H289.4z M349.1,107.6c-3.6,0.6-6.7-2.5-6.1-6.1c0.3-2.2,2.2-4.1,4.4-4.4
			c3.6-0.6,6.7,2.5,6.1,6.1C353.2,105.5,351.3,107.3,349.1,107.6z"/>
	</g>
	<path class="st3" d="M349.9,28.7l-9.9-7.8L325.7,9.5L319,4.2l-6.7,5.3L298,20.8l-9.9,7.8L236,69.9v14.7h12.3v77.3H319h70.7V84.5
		H402V69.9L349.9,28.7z M371.1,143.2H319h-52.1v-74L319,27.9l0,0l0,0l52.1,41.2V143.2z"/>
</g>
</svg>
